<svg width="24" height="24" viewBox="0 0 24 24" fill="none" xmlns="http://www.w3.org/2000/svg">
<path id="Union (Stroke)" fill-rule="evenodd" clip-rule="evenodd" d="M11.3018 1.70809L1.91994 9.75232C1.63293 9.9984 1.44 10.398 1.44 10.8504V21.1939C1.44 22.044 2.05989 22.56 2.61818 22.56H6.10909C6.66738 22.56 7.28727 22.044 7.28727 21.1939V15.1139C7.28727 12.8645 9.01179 10.8678 11.3455 10.8678H12.6545C14.9882 10.8678 16.7127 12.8645 16.7127 15.1139V21.1939C16.7127 22.044 17.3326 22.56 17.8909 22.56H21.3818C21.9401 22.56 22.56 22.044 22.56 21.1939V10.8504C22.56 10.398 22.3671 9.9984 22.0801 9.75232L12.6982 1.70809C12.2814 1.35064 11.7186 1.35064 11.3018 1.70809ZM0.982616 8.65915C0.361544 9.19167 0 9.99791 0 10.8504V21.1939C0 22.7437 1.1722 24 2.61818 24H6.10909C7.55507 24 8.72727 22.7437 8.72727 21.1939V15.1139C8.72727 13.5641 9.89947 12.3078 11.3455 12.3078H12.6545C14.1005 12.3078 15.2727 13.5641 15.2727 15.1139V21.1939C15.2727 22.7437 16.4449 24 17.8909 24H21.3818C22.8278 24 24 22.7437 24 21.1939V10.8504C24 9.99791 23.6385 9.19167 23.0174 8.65914L13.6356 0.614911C12.6794 -0.20497 11.3206 -0.20497 10.3644 0.61491L0.982616 8.65915Z" fill="#008182"/>
</svg>
