<svg width="47" height="47" viewBox="0 0 47 47" fill="none" xmlns="http://www.w3.org/2000/svg">
<g id="Group">
<path id="Vector" d="M13.588 0H33.0082C40.5141 0 46.5962 6.14577 46.5962 13.702V33.2854C46.5962 40.8542 40.5016 46.9874 33.0082 46.9874H13.588C6.08211 46.9874 0 40.8416 0 33.2854V13.702C0 6.14577 6.0946 0 13.588 0Z" fill="#008081"/>
<path id="Vector_2" fill-rule="evenodd" clip-rule="evenodd" d="M34.8941 30.7288C34.8941 30.7288 34.5943 30.8926 34.8066 31.6356C34.8191 31.686 35.1438 33.2854 34.6318 34.0032C34.6193 34.0284 34.5444 34.1795 34.5444 34.1795V34.4566L34.3695 34.9981L34.1947 36.0056C34.1947 36.0056 34.382 37.0005 34.4694 37.3784C34.4944 37.4791 34.5569 37.6554 34.5569 37.6554L34.6443 37.8317V38.197L34.7317 38.2851L34.8191 38.4614L34.994 38.6377L34.8191 38.9148L34.5444 39.1919H34.2696L34.0948 39.1037C34.0948 39.1037 33.3329 39.1037 33.1956 39.1919C33.0582 39.2926 33.0207 39.28 33.0207 39.28L32.8459 39.1037C32.8459 39.1037 32.6086 38.3229 31.5845 38.197C31.6095 38.2221 31.4096 38.197 31.4096 38.197L31.3222 37.9199C31.3222 37.9199 31.4846 37.3658 31.7718 37.3784C32.0591 37.3784 32.134 37.2902 32.134 37.2902C32.134 37.2902 32.4213 36.9376 32.4962 36.6479C32.5212 36.5724 32.671 36.2827 32.671 36.2827C32.671 36.2827 33.4079 34.6077 33.1206 31.2704C33.1206 31.3207 33.0957 30.88 32.9458 30.7288C32.7959 30.5777 32.671 30.3636 32.671 30.3636L32.4962 28.8146L32.2214 28.3612C32.2214 28.3612 31.4846 27.1774 31.4971 26.8122C31.4971 26.7366 31.4971 26.5351 31.4971 26.5351L31.4096 26.258C31.4096 26.258 31.1474 26.0691 30.9601 26.1699C30.7602 26.2706 30.5979 26.3462 30.5979 26.3462C30.5979 26.3462 29.6237 26.6736 28.787 26.5225C28.6496 26.4973 28.5122 26.6107 28.5122 26.6107C28.5122 26.6107 28.2375 26.8877 28.2375 26.9759C28.2375 27.064 28.2375 27.253 28.2375 27.253C28.2375 27.253 28.2 29.7591 28.0626 30.8044C28.0501 30.9052 28.0626 31.1696 28.0626 31.1696V31.9001C28.0626 31.9001 28.175 32.3912 28.3374 32.7187C28.4498 32.9453 28.6746 34.4692 28.5122 35.1744C28.4997 35.2374 28.5122 35.4515 28.5122 35.4515L28.5996 35.7286C28.5996 35.7286 28.5996 36.3583 28.7745 36.459C28.8369 36.4842 28.7745 36.6353 28.7745 36.6353H28.8619C28.8619 36.6353 28.8994 37.0257 28.9493 37.1769C29.0118 37.3406 29.1242 37.4539 29.1242 37.4539L29.299 37.731C29.299 37.731 29.2366 37.7562 29.299 37.9073C29.3615 38.071 29.3864 38.1844 29.3864 38.1844V38.3607L29.5613 38.4488C29.5613 38.4488 29.6862 38.6377 29.6487 38.9904C29.6112 39.343 29.6487 39.5319 29.6487 39.5319L29.8236 39.7082L29.9984 39.9853V40.2623L29.8236 40.7157C29.8236 40.7157 29.7486 40.9046 29.5488 40.892C29.349 40.892 28.5996 40.6527 28.1875 40.9802C28.175 40.9802 27.8253 41.0683 27.8253 41.0683L27.4631 40.892L27.5506 40.5268C27.5506 40.5268 27.4507 40.3505 27.638 40.1616C27.8253 39.9727 28.0002 39.7964 28.0002 39.7964C28.0002 39.7964 28.0876 39.3304 27.9128 39.2548C27.7379 39.1793 27.7379 39.0785 27.7379 39.0785C27.7379 39.0785 27.8378 38.9022 27.9128 38.8015C27.9877 38.7007 28.3374 37.3658 28.0876 36.7109C27.8378 36.0434 27.638 35.6152 27.638 35.6152V35.3382C27.638 35.3382 27.4756 34.8722 27.2758 34.6077C27.076 34.3433 26.9136 33.9654 26.9136 33.9654C26.8887 33.9654 26.5265 33.2854 26.7388 32.6935C26.9136 32.1897 26.7138 31.7112 26.6514 31.3207C26.5515 30.7792 26.4515 30.5777 26.4765 30.0488C26.4765 30.1495 26.3017 29.2302 26.3017 29.2302L26.2143 28.865V28.4997L26.1268 28.1345L25.8521 27.6811C25.8521 27.6811 25.5274 26.8751 24.7655 26.4973C24.7156 26.4721 24.5907 26.4973 24.5907 26.4973C24.5907 26.4973 24.5907 26.9003 24.6781 27.1396C24.778 27.3663 24.853 27.593 24.853 27.593C24.853 27.593 25.1402 28.7138 25.2151 29.5072C25.2901 30.3007 25.3026 30.5147 25.3026 30.5147V31.2452C25.3026 31.2452 25.2401 31.3459 25.3026 31.5222C25.365 31.6986 25.3525 31.8245 25.39 31.8875C25.4275 31.9504 25.4774 32.1645 25.4774 32.1645C25.4774 32.1645 25.8396 33.3735 25.5648 34.6203C25.5523 34.6833 25.5648 34.8974 25.5648 34.8974C25.5648 34.8974 25.5399 35.653 25.5648 35.993C25.5898 36.3331 25.6523 36.7235 25.6523 36.7235V37.0887L25.7397 37.6302C25.7397 37.6302 25.8771 38.4992 25.7397 38.7259C25.6023 38.9526 25.4649 39.0911 25.4649 39.0911C25.4649 39.0911 25.4649 39.4185 25.7397 39.6326C25.8021 39.683 25.8271 39.809 25.8271 39.809C25.8271 39.809 25.1902 40.3253 25.1027 40.3505C25.0153 40.3757 24.828 40.4386 24.828 40.4386H23.9288C23.9288 40.4386 23.4417 40.4764 23.2918 40.3505C23.1545 40.212 23.0171 40.1742 23.0171 40.1742H22.9297L23.0171 39.8971C23.0171 39.8971 23.3918 39.406 23.654 39.2548C23.9163 39.1037 24.0287 38.7511 24.0162 38.7133C24.0037 38.6755 24.2535 38.071 24.4658 37.8947C24.778 37.6302 24.7406 36.799 24.7406 36.799C24.7406 36.799 24.803 35.1367 24.7406 34.7085C24.7031 34.4188 24.4658 34.2551 24.4658 34.2551C24.4658 34.2551 24.0162 33.4365 24.1036 32.7061C24.2035 31.9756 24.1911 31.7993 24.1911 31.7993L24.1036 31.5222L23.9288 30.9807L23.8414 30.3384L23.6665 29.8851C23.6665 29.8851 23.3793 28.9027 23.1295 28.6131C23.067 28.5375 22.9546 28.336 22.9546 28.336C22.9546 28.336 22.8048 27.9204 22.6799 27.6937C22.555 27.467 22.505 27.2404 22.505 27.2404C22.505 27.2404 22.3552 26.4595 22.4176 26.2329C22.4426 26.1573 22.4176 25.9558 22.4176 25.9558C22.4176 25.9558 22.1678 25.5906 21.7807 25.1372C21.7182 25.0616 21.5059 25.049 21.5059 25.049C21.5059 25.049 15.8484 26.8625 13.5505 19.8604C13.5505 19.8604 13.5505 19.2307 13.2757 18.5884C12.9885 17.9084 12.8261 17.2157 12.8261 17.2157C12.8261 17.2157 12.6388 17.0772 12.3765 16.8505C12.2516 16.7371 12.2641 16.8127 11.8395 16.4853C11.802 16.4601 11.3899 16.309 11.3899 16.309C11.3899 16.309 11.1027 16.2334 10.6655 15.7674C10.6406 15.7422 10.3908 15.6793 10.3908 15.6793L10.116 15.5911C10.116 15.5911 9.67892 15.503 9.57901 15.314C9.56652 15.2889 9.40416 15.314 9.40416 15.314C9.40416 15.314 9.05447 15.2637 8.95456 15.314C8.85465 15.3644 8.87962 15.377 8.6798 15.314C8.5674 15.2763 7.96793 14.8355 7.95544 14.4955C7.95544 14.2814 8.15527 13.7902 8.40505 13.765C8.40505 13.765 8.33011 12.959 9.49158 12.7575C9.61647 12.7323 11.5647 12.8457 11.5647 12.8457L12.2017 12.7575C12.2017 12.7575 12.8136 12.4804 12.926 12.5812C12.9385 12.5812 13.1009 12.493 13.1009 12.493C13.1009 12.493 14.0875 12.2789 14.637 12.5812C14.6995 12.619 14.8119 12.5812 14.8119 12.5812L14.9867 12.493C14.9867 12.493 15.4738 12.2915 15.7985 12.4049C15.8609 12.4301 15.8859 12.5812 15.8859 12.5812C15.8859 12.5812 15.8859 12.4679 15.8859 13.2235C15.8859 13.3116 15.8859 13.3998 15.8859 13.4879C15.8859 13.5257 15.9109 13.5761 15.9234 13.6139C15.9359 13.6643 15.9608 13.7272 15.9733 13.7776C15.9858 13.8406 16.0233 13.9035 16.0732 13.9539C16.1107 13.9917 16.1482 14.0295 16.1732 14.0799C16.1732 14.105 16.1856 14.1176 16.1981 14.1428C16.2106 14.1932 16.2356 14.2562 16.2481 14.3065C16.298 14.4703 16.348 14.634 16.398 14.7977C16.4479 14.9992 16.4979 15.2007 16.5478 15.4022C16.5728 15.5155 16.5853 15.6163 16.5978 15.7296C16.5978 15.78 16.6103 15.843 16.6103 15.8934C16.6103 15.9437 16.6103 15.9941 16.6228 16.0445C16.6228 16.0823 16.6602 16.12 16.6727 16.1452C16.6727 16.1578 16.6727 16.183 16.6727 16.1956C16.6727 16.2208 16.6727 16.2334 16.6852 16.2586C16.7102 16.2964 16.7227 16.3467 16.7227 16.3845C16.7227 16.4223 16.7352 16.4601 16.7476 16.4853C16.7726 16.5734 16.7976 16.6742 16.8101 16.7623C16.8351 16.8757 16.86 16.989 16.8975 17.1024C16.9225 17.2283 16.96 17.3416 16.9849 17.4676C17.0099 17.5935 17.0474 17.7195 17.0724 17.8328C17.0973 17.9461 17.1348 18.0595 17.1598 18.1728C17.1848 18.2736 17.2097 18.3617 17.2347 18.4625C17.2472 18.5381 17.2722 18.601 17.2847 18.6766C17.2972 18.7396 17.3097 18.7899 17.3471 18.8277C17.3721 18.8529 17.3971 18.8907 17.4221 18.9285C17.4845 19.0166 17.5469 19.0922 17.6094 19.1677C17.6593 19.2181 17.7093 19.2811 17.7717 19.3315C17.9091 19.4322 18.1339 19.6085 18.1339 19.6085C18.1339 19.6085 20.0073 20.8301 21.9306 18.601C21.9555 18.5758 22.2053 18.324 22.2053 18.324C22.2053 18.324 22.6299 17.921 22.6549 17.8706C22.6799 17.8202 23.1919 17.0142 23.3793 16.8631C23.4792 16.7875 23.4667 16.586 23.4667 16.586L23.3793 16.2208V15.7674L23.2918 14.8607V14.5836C23.2918 14.5836 23.142 13.3494 24.4658 13.0346C24.5407 13.022 24.5532 12.9464 24.5532 12.9464V12.7701L22.9297 10.7677C22.9297 10.7677 22.8672 10.5284 22.9297 10.4906C22.9921 10.4654 25.0028 10.4025 25.0028 10.4025C25.0028 10.4025 25.0528 10.4403 25.0903 10.4906C25.1277 10.541 25.9895 11.5863 25.9895 11.5863L26.0769 11.6744C26.0769 11.6744 26.1768 11.6744 26.2517 11.6744C26.3267 11.6744 26.4266 11.6744 26.4266 11.6744L26.6014 11.7626L26.6888 11.6744C26.6888 11.6744 27.2009 11.347 27.4132 10.2136C27.4257 10.138 27.588 9.67203 27.588 9.67203C27.588 9.67203 27.638 9.48313 27.7629 9.39497C27.8128 9.36978 27.9877 8.89122 28.5747 8.48822C28.5996 8.47562 28.6621 8.40006 28.6621 8.40006C28.6621 8.40006 28.7495 8.14818 28.6621 8.123C28.5747 8.1104 28.4872 8.03484 28.4872 8.03484V7.85853C28.4872 7.85853 28.4623 7.66962 28.3998 7.68221C28.3374 7.68221 28.3124 7.59406 28.3124 7.59406L28.225 7.5059C28.225 7.5059 27.9377 6.83843 28.3124 6.32209C28.3499 6.27171 28.8369 5.56646 29.6737 6.04502C29.6987 6.04502 30.0858 6.42284 30.1233 6.68731C30.1233 6.72509 30.1233 6.86362 30.1233 6.86362V7.22884L30.2107 7.5059V7.59406C30.2107 7.59406 30.3606 7.61925 30.3856 7.59406C30.4105 7.56887 30.473 7.5059 30.473 7.5059C30.5229 7.45553 30.5479 7.41775 30.6104 7.41775C30.6603 7.41775 30.6978 7.41775 30.7477 7.41775C30.8726 7.41775 31.01 7.41775 31.1349 7.44293C31.2723 7.44293 31.4346 7.45553 31.5595 7.5059C31.5845 7.5059 31.6469 7.59406 31.6469 7.59406C31.7718 7.7074 31.8842 7.80815 32.0091 7.9215C32.0965 8.00965 32.1965 8.09781 32.2839 8.18597C32.3213 8.22375 32.3588 8.27412 32.4088 8.3245C32.4462 8.36228 32.4837 8.41265 32.5337 8.45044C32.5711 8.48822 32.5711 8.53859 32.5711 8.60156V8.68972C32.5711 8.68972 32.6211 8.75269 32.5711 8.77787C32.5212 8.80306 32.4837 8.86603 32.4837 8.86603V8.95419C32.4837 8.95419 32.5836 9.48313 32.5087 10.4151C32.4712 10.8936 32.3838 11.4729 32.2214 12.1404C32.0965 12.6442 32.1465 13.1857 31.8593 13.9665C31.8343 14.0547 31.8593 14.1428 31.8593 14.1428L31.9467 14.3191C31.9467 14.3191 32.696 15.0748 32.8459 15.3266C32.8833 15.377 33.0207 15.4148 33.0207 15.4148L33.2955 15.6919C33.2955 15.6919 34.1947 16.6742 34.2946 16.9638C34.2946 16.989 34.2072 16.9638 34.2072 16.9638L34.1197 17.052L34.2072 17.1401L34.382 17.2283L34.5569 17.4046C34.5569 17.4046 34.6568 18.1728 34.382 18.3114C34.3445 18.324 34.2072 18.3114 34.2072 18.3114L34.1197 18.1351L33.9449 18.0469C33.9449 18.0469 33.5952 18.1099 33.7701 18.324C33.8075 18.3743 33.8575 18.4121 33.8575 18.4121L34.0323 18.5884L34.1197 18.6766L34.2946 18.7647H34.382L34.4694 18.8529L34.5569 19.0292V19.3063L34.4694 19.4826V19.8478L34.5569 19.936C34.5569 19.936 35.556 20.8427 35.7308 21.8502C35.7433 21.9258 35.8182 22.4925 35.8182 22.4925C35.8182 22.4925 35.8682 23.1978 35.8182 24.0415C35.8182 24.1675 35.9057 24.2179 35.9057 24.2179C35.9057 24.2179 36.2179 24.5453 36.3553 24.8601C36.3802 24.8979 36.4427 24.9483 36.4427 24.9483L36.5301 25.0364L36.6175 25.1246V25.2128C36.6175 25.2128 36.3802 25.0994 36.3428 25.2128C36.3053 25.3261 36.3428 25.3891 36.3428 25.3891V25.4772L36.4302 25.6535V25.8299L36.5176 26.0062C36.5176 26.0062 36.3553 26.384 36.068 26.5477C35.9681 26.5981 35.9806 26.5477 35.9806 26.5477L35.8932 26.4595L35.8058 26.0943C35.8058 26.0943 35.7558 25.9306 35.6309 26.0062C35.4935 26.0691 35.4561 26.0943 35.4561 26.0943V26.7366C35.4561 26.7366 35.4311 27.6056 35.3686 27.6434C35.2937 27.6811 35.2812 28.0086 35.2812 28.0086L35.1938 28.3738C35.1938 28.3738 35.1938 28.7894 35.1064 29.1924L34.8316 30.6533L34.8941 30.7288Z" fill="#E9FFFD"/>
</g>
</svg>
