<svg width="24" height="24" viewBox="0 0 24 24" fill="none" xmlns="http://www.w3.org/2000/svg">
<g id="Union">
<path d="M8.88 4.32C8.48236 4.32 8.16 4.64235 8.16 5.04C8.16 5.43764 8.48236 5.76 8.88 5.76H20.4C20.7976 5.76 21.12 5.43764 21.12 5.04C21.12 4.64235 20.7976 4.32 20.4 4.32H8.88Z" fill="#008182"/>
<path d="M8.16 9.36C8.16 8.96236 8.48236 8.64 8.88 8.64H20.4C20.7976 8.64 21.12 8.96236 21.12 9.36C21.12 9.75764 20.7976 10.08 20.4 10.08H8.88C8.48236 10.08 8.16 9.75764 8.16 9.36Z" fill="#008182"/>
<path d="M8.88 12.96C8.48236 12.96 8.16 13.2824 8.16 13.68C8.16 14.0776 8.48236 14.4 8.88 14.4H20.4C20.7976 14.4 21.12 14.0776 21.12 13.68C21.12 13.2824 20.7976 12.96 20.4 12.96H8.88Z" fill="#008182"/>
<path d="M8.88 17.28C8.48236 17.28 8.16 17.6024 8.16 18C8.16 18.3976 8.48236 18.72 8.88 18.72H20.4C20.7976 18.72 21.12 18.3976 21.12 18C21.12 17.6024 20.7976 17.28 20.4 17.28H8.88Z" fill="#008182"/>
<path fill-rule="evenodd" clip-rule="evenodd" d="M5.28 2.4V9.12H2.4C1.07452 9.12 0 10.1945 0 11.52V20.64C0 22.4957 1.50432 24 3.36 24H21.6C22.9255 24 24 22.9255 24 21.6V2.4C24 1.07452 22.9255 0 21.6 0H7.68C6.35452 0 5.28 1.07452 5.28 2.4ZM21.6 1.44H7.68C7.14981 1.44 6.72 1.86981 6.72 2.4V22.56H21.6C22.1302 22.56 22.56 22.1302 22.56 21.6V2.4C22.56 1.86981 22.1302 1.44 21.6 1.44ZM5.28 10.56V12.96H3.12C2.72235 12.96 2.4 13.2824 2.4 13.68C2.4 14.0776 2.72235 14.4 3.12 14.4H5.28V15.84H3.12C2.72235 15.84 2.4 16.1624 2.4 16.56C2.4 16.9576 2.72235 17.28 3.12 17.28H5.28V18.72H3.12C2.72235 18.72 2.4 19.0424 2.4 19.44C2.4 19.8376 2.72235 20.16 3.12 20.16H5.28V22.56H3.36C2.29961 22.56 1.44 21.7004 1.44 20.64V11.52C1.44 10.9898 1.86981 10.56 2.4 10.56H5.28Z" fill="#008182"/>
</g>
</svg>
