<svg width="18" height="24" viewBox="0 0 18 24" fill="none" xmlns="http://www.w3.org/2000/svg">
<g id="Union">
<path d="M10.4135 6.67911L9.44222 4.83817C9.25462 4.4826 8.74538 4.4826 8.55778 4.83817L7.58648 6.67911C7.51414 6.81623 7.38227 6.91204 7.22951 6.93847L5.17852 7.29334C4.78238 7.36189 4.62501 7.8462 4.90521 8.1345L6.3559 9.62714C6.46396 9.73832 6.51433 9.89333 6.49226 10.0468L6.19597 12.1071C6.13874 12.505 6.55073 12.8043 6.9115 12.6269L8.77938 11.7085C8.9185 11.6401 9.0815 11.6401 9.22062 11.7085L11.0885 12.6269C11.4493 12.8043 11.8613 12.505 11.804 12.1071L11.5077 10.0468C11.4857 9.89333 11.536 9.73832 11.6441 9.62714L13.0948 8.1345C13.375 7.8462 13.2176 7.36189 12.8215 7.29334L10.7705 6.93847C10.6177 6.91204 10.4859 6.81623 10.4135 6.67911Z" fill="#008182"/>
<path fill-rule="evenodd" clip-rule="evenodd" d="M9 0C4.02944 0 0 4.02944 0 9C0 11.8551 1.3295 14.3998 3.4032 16.0486L2 24L9 19L16 24L14.5968 16.0486C16.6705 14.3998 18 11.8551 18 9C18 4.02944 13.9706 0 9 0ZM1.5 9C1.5 13.1421 4.85786 16.5 9 16.5C13.1421 16.5 16.5 13.1421 16.5 9C16.5 4.85786 13.1421 1.5 9 1.5C4.85786 1.5 1.5 4.85786 1.5 9Z" fill="#008182"/>
</g>
</svg>
