<svg width="24" height="24" viewBox="0 0 24 24" fill="none" xmlns="http://www.w3.org/2000/svg">
<g id="Union">
<path d="M2.88 10.32C2.88 9.92235 3.20235 9.6 3.6 9.6H20.4C20.7976 9.6 21.12 9.92235 21.12 10.32C21.12 10.7176 20.7976 11.04 20.4 11.04H3.6C3.20236 11.04 2.88 10.7176 2.88 10.32Z" fill="#008182"/>
<path d="M2.88 13.68C2.88 13.2824 3.20235 12.96 3.6 12.96H20.4C20.7976 12.96 21.12 13.2824 21.12 13.68C21.12 14.0776 20.7976 14.4 20.4 14.4H3.6C3.20236 14.4 2.88 14.0776 2.88 13.68Z" fill="#008182"/>
<path d="M3.6 16.32C3.20235 16.32 2.88 16.6424 2.88 17.04C2.88 17.4376 3.20236 17.76 3.6 17.76H20.4C20.7976 17.76 21.12 17.4376 21.12 17.04C21.12 16.6424 20.7976 16.32 20.4 16.32H3.6Z" fill="#008182"/>
<path d="M2.88 20.4C2.88 20.0024 3.20235 19.68 3.6 19.68H20.4C20.7976 19.68 21.12 20.0024 21.12 20.4C21.12 20.7976 20.7976 21.12 20.4 21.12H3.6C3.20236 21.12 2.88 20.7976 2.88 20.4Z" fill="#008182"/>
<path fill-rule="evenodd" clip-rule="evenodd" d="M3.36 0C1.50432 0 0 1.50432 0 3.36V20.64C0 22.4957 1.50432 24 3.36 24H20.64C22.4957 24 24 22.4957 24 20.64V3.36C24 1.50432 22.4957 0 20.64 0H3.36ZM22.56 7.68H1.44V20.64C1.44 21.7004 2.29961 22.56 3.36 22.56H20.64C21.7004 22.56 22.56 21.7004 22.56 20.64V7.68ZM6.24 4.08C6.24 5.00784 5.48784 5.76 4.56 5.76C3.63216 5.76 2.88 5.00784 2.88 4.08C2.88 3.15216 3.63216 2.4 4.56 2.4C5.48784 2.4 6.24 3.15216 6.24 4.08Z" fill="#008182"/>
</g>
</svg>
