<svg width="87" height="36" viewBox="0 0 87 36" fill="none" xmlns="http://www.w3.org/2000/svg">
<g id="Group">
<path id="Vector" d="M11.8292 8.88588H13.2904V14.4523C11.9291 15.6865 9.9808 16.3036 7.98257 16.3036C3.58647 16.3036 0.364319 13.1552 0.364319 8.88588C0.364319 4.61659 3.58647 1.46814 8.00755 1.46814C10.1931 1.46814 12.1039 2.17339 13.3778 3.5713L12.4286 4.55362C11.2047 3.34461 9.76848 2.84086 8.06999 2.84086C4.49816 2.84086 1.87548 5.3974 1.87548 8.88588C1.87548 12.3744 4.49815 14.9309 8.0575 14.9309C9.44377 14.9309 10.7176 14.616 11.8416 13.81V8.89847L11.8292 8.88588Z" fill="#003F3D"/>
<path id="Vector_2" d="M25.517 9.38961V16.1777H24.1058V14.4649C23.4438 15.5858 22.17 16.2784 20.3716 16.2784C17.9112 16.2784 16.4001 14.9813 16.4001 13.0922C16.4001 11.4046 17.4741 9.99411 20.5964 9.99411H24.0433V9.32664C24.0433 7.45017 22.9942 6.43007 20.971 6.43007C19.5723 6.43007 18.2484 6.93382 17.3617 7.72723L16.6998 6.61898C17.7988 5.68704 19.4099 5.14551 21.1209 5.14551C23.9309 5.14551 25.517 6.55601 25.517 9.38961ZM24.0558 12.8907V11.1024H20.6463C18.5357 11.1024 17.8613 11.9336 17.8613 13.0544C17.8613 14.3264 18.8729 15.1198 20.6089 15.1198C22.3448 15.1198 23.4813 14.3264 24.0558 12.8907Z" fill="#003F3D"/>
<path id="Vector_3" d="M47.4351 9.83037V16.1902H45.9739V9.9815C45.9739 7.66424 44.8124 6.48043 42.8517 6.48043C40.6161 6.48043 39.2174 7.94131 39.2174 10.4349V16.1902H37.7562V9.9815C37.7562 7.66424 36.5947 6.48043 34.6215 6.48043C32.4109 6.48043 30.9872 7.94131 30.9872 10.4349V16.1902H29.526V5.23364H30.9247V7.23606C31.6866 5.9263 33.0978 5.15808 34.9087 5.15808C36.7196 5.15808 38.1059 5.9263 38.7678 7.47534C39.5546 6.06483 41.1032 5.15808 43.064 5.15808C45.7116 5.15808 47.4476 6.69452 47.4476 9.84297L47.4351 9.83037Z" fill="#003F3D"/>
<path id="Vector_4" d="M69.3531 9.83037V16.1902H67.8919V9.9815C67.8919 7.66424 66.7305 6.48043 64.7697 6.48043C62.5342 6.48043 61.1354 7.94131 61.1354 10.4349V16.1902H59.6742V9.9815C59.6742 7.66424 58.5128 6.48043 56.5395 6.48043C54.329 6.48043 52.9052 7.94131 52.9052 10.4349V16.1902H51.444V5.23364H52.8428V7.23606C53.6046 5.9263 55.0159 5.15808 56.8268 5.15808C58.6377 5.15808 60.0239 5.9263 60.6858 7.47534C61.4726 6.06483 63.0213 5.15808 64.982 5.15808C67.6297 5.15808 69.3656 6.69452 69.3656 9.84297L69.3531 9.83037Z" fill="#003F3D"/>
<path id="Vector_5" d="M81.5424 9.38961V16.1777H80.1436V14.4649C79.4817 15.5858 78.1953 16.2784 76.4094 16.2784C73.9491 16.2784 72.4379 14.9813 72.4379 13.0922C72.4379 11.4046 73.512 9.99411 76.6342 9.99411H80.0812V9.32664C80.0812 7.45017 79.0321 6.43007 77.0089 6.43007C75.6101 6.43007 74.2863 6.93382 73.3996 7.72723L72.7377 6.61898C73.8367 5.68704 75.4478 5.14551 77.1587 5.14551C79.9687 5.14551 81.5548 6.55601 81.5548 9.38961H81.5424ZM80.0812 12.8907V11.1024H76.6717C74.561 11.1024 73.8866 11.9336 73.8866 13.0544C73.8866 14.3264 74.8982 15.1198 76.6342 15.1198C78.3702 15.1198 79.5067 14.3264 80.0812 12.8907Z" fill="#003F3D"/>
<path id="Vector_6" d="M85.5388 0.725098H87V16.1903H85.5388V0.725098Z" fill="#003F3D"/>
<path id="Vector_7" d="M5.2225 23.9732H0.589111L1.15111 21.2278H13.7524L13.1904 23.9732H8.58203L6.22162 35.8114H2.87459L5.21002 23.9732H5.2225Z" fill="#003F3D"/>
<path id="Vector_8" d="M23.1941 31.0761H14.6766C14.7765 32.6 15.7132 33.3682 17.5491 33.3682C18.6856 33.3682 19.7596 32.9904 20.5214 32.3229L21.8702 34.4638C20.5839 35.5091 18.9104 35.9625 17.2244 35.9625C13.7524 35.9625 11.5419 33.9853 11.5419 30.9376C11.5419 27.1846 14.227 24.414 18.0861 24.414C21.3332 24.414 23.3814 26.3534 23.3814 29.3508C23.3814 29.9553 23.294 30.5346 23.1941 31.0635V31.0761ZM14.9139 29.1745H20.434C20.434 27.701 19.4474 26.8572 17.9612 26.8572C16.475 26.8572 15.3635 27.7765 14.9264 29.1745H14.9139Z" fill="#003F3D"/>
<path id="Vector_9" d="M24.5054 30.9502C24.5054 27.2224 27.3154 24.4266 31.2869 24.4266C33.6598 24.4266 35.4457 25.4467 36.2825 27.2602L33.5599 28.6329C33.0603 27.5876 32.2111 27.1091 31.0871 27.1091C29.1888 27.1091 27.7775 28.6077 27.7775 30.7738C27.7775 32.2977 28.7017 33.28 30.3627 33.28C31.4743 33.28 32.4234 32.8266 33.0853 31.7813L35.4582 33.28C34.3842 34.9676 32.4359 35.9625 30.1629 35.9625C26.716 35.9625 24.5054 33.9601 24.5054 30.9376V30.9502Z" fill="#003F3D"/>
<path id="Vector_10" d="M49.1461 28.2551C49.1461 28.6707 49.1086 29.1115 48.9962 29.5901L47.7598 35.7988H44.5377L45.7366 29.8042C45.799 29.5397 45.824 29.2626 45.824 29.0359C45.824 27.8899 45.1996 27.2476 43.9257 27.2476C42.2896 27.2476 41.1531 28.167 40.766 30.119L39.6545 35.8114H36.4323L39.4921 20.3588H42.7143L41.6777 25.6356C42.6518 24.817 43.8508 24.4518 45.1121 24.4518C47.535 24.4518 49.1586 25.7867 49.1586 28.2803L49.1461 28.2551Z" fill="#003F3D"/>
</g>
</svg>
